<?xml version="1.0" encoding="UTF-8"?>
<svg version="1.1" xmlns="http://www.w3.org/2000/svg" width="1080" height="1080">
<path d="M0 0 C0.7363005 -0.00576922 1.472601 -0.01153844 2.23121363 -0.01748249 C4.70035514 -0.03072559 7.1678687 -0.00828392 9.63692665 0.01396656 C11.42402262 0.0117862 13.21111704 0.00740832 14.99820292 0.00102073 C19.91033121 -0.01016912 24.82191528 0.00985357 29.73397422 0.03491104 C35.03044165 0.05648314 40.32687785 0.0491979 45.62337685 0.04539967 C54.80033464 0.04277663 63.97711482 0.05847749 73.15402794 0.08658886 C86.42230895 0.12720677 99.690504 0.14024434 112.95884044 0.14652882 C134.48526171 0.15747467 156.0115883 0.19075681 177.53795815 0.23804188 C198.4500627 0.2839299 219.36214154 0.31932554 240.27428627 0.34058094 C241.56309202 0.34189456 242.85189777 0.34320818 244.17975824 0.3445616 C250.64525305 0.35108674 257.11074804 0.35740529 263.57624316 0.36362112 C317.22256386 0.41546319 370.86878178 0.50353645 424.51500893 0.61523914 C423.14000893 2.61523914 423.14000893 2.61523914 421.51500893 4.61523914 C420.85500893 4.61523914 420.19500893 4.61523914 419.51500893 4.61523914 C419.51500893 5.27523914 419.51500893 5.93523914 419.51500893 6.61523914 C418.00329018 7.95508289 418.00329018 7.95508289 415.82750893 9.55273914 C410.98899529 13.18932901 406.40962282 17.07288022 401.8580265 21.05835438 C397.73164227 24.61523914 397.73164227 24.61523914 395.51500893 24.61523914 C395.51500893 25.27523914 395.51500893 25.93523914 395.51500893 26.61523914 C393.78454018 28.17383289 393.78454018 28.17383289 391.32750893 30.05273914 C387.21078662 33.26494218 383.17842945 36.54484541 379.20250893 39.92773914 C378.39426674 40.61271473 378.39426674 40.61271473 377.56969643 41.31152821 C374.6573048 43.78259634 371.75725288 46.26724902 368.86657143 48.76367664 C368.27400551 49.2724535 367.68143959 49.78123035 367.07091713 50.30542469 C365.92786512 51.28712725 364.78824176 52.27283926 363.6524601 53.26294422 C359.74011884 56.61523914 359.74011884 56.61523914 357.51500893 56.61523914 C357.51500893 57.27523914 357.51500893 57.93523914 357.51500893 58.61523914 C355.90563393 60.05273914 355.90563393 60.05273914 353.76500893 61.61523914 C353.06891518 62.13086414 352.37282143 62.64648914 351.65563393 63.17773914 C349.66399272 64.51519163 347.68472969 65.59879338 345.51500893 66.61523914 C345.51500893 67.27523914 345.51500893 67.93523914 345.51500893 68.61523914 C343.39782143 70.56055164 343.39782143 70.56055164 340.64000893 72.74023914 C339.28262611 73.82691883 339.28262611 73.82691883 337.89782143 74.93555164 C335.51500893 76.61523914 335.51500893 76.61523914 333.51500893 76.61523914 C333.51500893 77.27523914 333.51500893 77.93523914 333.51500893 78.61523914 C331.81969643 80.13867664 331.81969643 80.13867664 329.39000893 81.99023914 C324.14682648 86.06159285 319.13498166 90.355548 314.16295815 94.75342274 C309.73224116 98.61523914 309.73224116 98.61523914 307.51500893 98.61523914 C307.51500893 99.27523914 307.51500893 99.93523914 307.51500893 100.61523914 C305.65172768 102.30664539 305.65172768 102.30664539 303.20250893 104.17773914 C302.40200111 104.79777821 301.6014933 105.41781727 300.77672768 106.05664539 C298.51500893 107.61523914 298.51500893 107.61523914 295.51500893 108.61523914 C295.51500893 109.27523914 295.51500893 109.93523914 295.51500893 110.61523914 C291.77683744 113.10735347 289.86866196 112.86392356 285.39916134 112.8613348 C284.66632237 112.86364249 283.93348341 112.86595018 283.1784372 112.8683278 C280.70348666 112.87365464 278.22879225 112.86462158 275.75385475 112.85574818 C273.96935121 112.8566197 272.18484791 112.85836968 270.40034598 112.86092651 C265.48161164 112.8654146 260.56296381 112.85737635 255.6442405 112.84737039 C250.34567519 112.83875917 245.04711503 112.84165439 239.74854469 112.84317493 C230.56341133 112.84422526 221.37830632 112.83793322 212.19318008 112.82669926 C198.91291962 112.81046724 185.63267291 112.80523861 172.3524036 112.80272327 C150.80772065 112.79834255 129.26305281 112.78502324 107.71837807 112.76611805 C86.78576165 112.74776899 65.85314934 112.73360772 44.9205265 112.72510242 C42.98613563 112.72431425 42.98613563 112.72431425 41.01266614 112.72351016 C34.54335929 112.72090015 28.07405241 112.71837272 21.60474551 112.71588635 C-32.0918438 112.69514212 -85.7884167 112.65990635 -139.48499107 112.61523914 C-135.93787224 109.05436196 -132.4506695 105.6996557 -128.48499107 102.61523914 C-127.82499107 102.61523914 -127.16499107 102.61523914 -126.48499107 102.61523914 C-126.15499107 101.62523914 -125.82499107 100.63523914 -125.48499107 99.61523914 C-123.43811607 97.74023914 -123.43811607 97.74023914 -120.73499107 95.61523914 C-119.7372567 94.81859852 -118.73952232 94.02195789 -117.71155357 93.20117664 C-117.18207115 92.77933094 -116.65258873 92.35748524 -116.10706139 91.92285633 C-113.40180399 89.74203776 -110.75687526 87.49125267 -108.10999107 85.24023914 C-107.57132408 84.78374989 -107.03265709 84.32726063 -106.47766685 83.85693836 C-103.65106681 81.46056409 -100.83116278 79.05656817 -98.01624107 76.64648914 C-88.52043341 68.53481158 -88.52043341 68.53481158 -84.60999107 65.80273914 C-80.15152409 62.68181225 -76.1629696 59.11906175 -72.11389732 55.49023914 C-71.30823326 54.76836414 -70.5025692 54.04648914 -69.67249107 53.30273914 C-68.92354576 52.62598133 -68.17460045 51.94922352 -67.40295982 51.25195789 C-65.48499107 49.61523914 -65.48499107 49.61523914 -63.48499107 48.61523914 C-61.81541828 46.95148368 -60.1492987 45.28426152 -58.48499107 43.61523914 C-56.45847828 41.84136853 -54.42509318 40.0924211 -52.35999107 38.36523914 C-51.79014488 37.88562733 -51.22029869 37.40601551 -50.63318443 36.91187 C-46.25500509 33.23585725 -41.82837266 29.62127312 -37.38733482 26.02148914 C-35.18342699 24.19429234 -33.01660388 22.34493379 -30.86389732 20.45898914 C-30.24119957 19.91556873 -29.61850182 19.37214832 -28.97693443 18.81226063 C-27.760445 17.74721594 -26.54875034 16.6766618 -25.34265709 15.59985828 C-22.16633495 12.82280858 -19.5087237 11.051763 -15.48499107 9.61523914 C-14.80012382 8.29116246 -14.13628905 6.95614674 -13.48499107 5.61523914 C-9.00439057 1.13520419 -6.51980282 -0.00944899 0 0 Z M353.51500893 53.61523914 C354.51500893 55.61523914 354.51500893 55.61523914 354.51500893 55.61523914 Z " fill="#FFFFFF" transform="translate(398.4849910736084,629.3847608566284)"/>
<path d="M0 0 C1.7888258 -0.00305397 3.57764853 -0.00918571 5.3664546 -0.01812416 C10.27426221 -0.03376192 15.18099863 -0.00579852 20.08866978 0.02932227 C25.38373812 0.0595645 30.67874654 0.04932098 35.97387695 0.04400635 C45.14541423 0.04033668 54.3166028 0.06229047 63.48805237 0.10167122 C76.7483511 0.15857176 90.0084813 0.17679249 103.26888889 0.18558716 C124.78315529 0.20090582 146.29723586 0.2474857 167.81140137 0.31370544 C188.70982941 0.37796307 209.60820697 0.42750988 230.50671387 0.45726013 C232.43913432 0.46001873 232.43913432 0.46001873 234.41059357 0.46283305 C240.87354696 0.47196835 247.3365007 0.4808143 253.79945469 0.48951638 C307.41228931 0.56207803 361.02492221 0.68536544 414.63757324 0.84178162 C413.26257324 2.84178162 413.26257324 2.84178162 411.63757324 4.84178162 C410.97757324 4.84178162 410.31757324 4.84178162 409.63757324 4.84178162 C409.63757324 5.50178162 409.63757324 6.16178162 409.63757324 6.84178162 C407.52038574 8.78709412 407.52038574 8.78709412 404.76257324 10.96678162 C403.40519043 12.0534613 403.40519043 12.0534613 402.02038574 13.16209412 C399.63757324 14.84178162 399.63757324 14.84178162 397.63757324 14.84178162 C397.63757324 15.50178162 397.63757324 16.16178162 397.63757324 16.84178162 C395.52038574 18.78709412 395.52038574 18.78709412 392.76257324 20.96678162 C391.40519043 22.0534613 391.40519043 22.0534613 390.02038574 23.16209412 C387.63757324 24.84178162 387.63757324 24.84178162 385.63757324 24.84178162 C385.63757324 25.50178162 385.63757324 26.16178162 385.63757324 26.84178162 C383.90710449 28.40037537 383.90710449 28.40037537 381.45007324 30.27928162 C377.33337946 33.49146239 373.3005842 36.77093179 369.32507324 40.15428162 C368.50704224 40.84904602 368.50704224 40.84904602 367.67248535 41.55784607 C365.99336381 42.98486641 364.3154376 44.41328346 362.63757324 45.84178162 C358.31311701 49.51902312 353.9815755 53.18764572 349.63757324 56.84178162 C349.1129248 57.28393005 348.58827637 57.72607849 348.04772949 58.18162537 C346.540301 59.44846677 345.02655846 60.70778338 343.51257324 61.96678162 C342.20933105 63.0534613 342.20933105 63.0534613 340.87976074 64.16209412 C338.63757324 65.84178162 338.63757324 65.84178162 335.63757324 66.84178162 C335.63757324 67.50178162 335.63757324 68.16178162 335.63757324 68.84178162 C333.52038574 70.78709412 333.52038574 70.78709412 330.76257324 72.96678162 C329.40519043 74.0534613 329.40519043 74.0534613 328.02038574 75.16209412 C325.63757324 76.84178162 325.63757324 76.84178162 323.63757324 76.84178162 C323.63757324 77.50178162 323.63757324 78.16178162 323.63757324 78.84178162 C321.52038574 80.78709412 321.52038574 80.78709412 318.76257324 82.96678162 C317.40519043 84.0534613 317.40519043 84.0534613 316.02038574 85.16209412 C313.63757324 86.84178162 313.63757324 86.84178162 311.63757324 86.84178162 C311.63757324 87.50178162 311.63757324 88.16178162 311.63757324 88.84178162 C309.92424571 90.42711864 308.14068277 91.93719376 306.32507324 93.40428162 C305.33894043 94.20994568 304.35280762 95.01560974 303.33679199 95.84568787 C300.63757324 97.84178162 300.63757324 97.84178162 297.63757324 98.84178162 C297.63757324 99.50178162 297.63757324 100.16178162 297.63757324 100.84178162 C295.87976074 102.39256287 295.87976074 102.39256287 293.51257324 104.15428162 C290.83760478 106.15825631 288.36249249 108.10577657 285.94571722 110.42515534 C282.4648613 113.31598714 279.69411687 113.46360269 275.15258217 113.45702076 C274.41628167 113.46278998 273.67998117 113.4685592 272.92136854 113.47450325 C270.45222703 113.48774635 267.98471346 113.46530468 265.51565552 113.4430542 C263.72855955 113.44523456 261.94146513 113.44961244 260.15437925 113.45600003 C255.24225096 113.46718988 250.33066689 113.44716719 245.41860795 113.42210972 C240.12214052 113.40053762 234.82570432 113.40782286 229.52920532 113.41162109 C220.35224753 113.41424413 211.17546735 113.39854327 201.99855423 113.3704319 C188.73027322 113.32981399 175.46207817 113.31677642 162.19374172 113.31049194 C140.66732046 113.29954609 119.14099387 113.26626395 97.61462402 113.21897888 C76.70251947 113.17309085 55.79044063 113.13769522 34.8782959 113.11643982 C32.94508728 113.11446939 32.94508728 113.11446939 30.97282393 113.11245916 C24.50732912 113.10593402 18.04183412 113.09961547 11.57633901 113.09339964 C-42.06998169 113.04155757 -95.71619961 112.95348431 -149.36242676 112.84178162 C-145.89560058 109.28125743 -142.49116813 106.59427587 -138.36242676 103.84178162 C-136.67245353 102.19875209 -135.01026282 100.5270685 -133.36242676 98.84178162 C-120.38888178 86.84178162 -120.38888178 86.84178162 -117.36242676 86.84178162 C-117.36242676 86.18178162 -117.36242676 85.52178162 -117.36242676 84.84178162 C-115.62850725 83.23544147 -113.82433576 81.70425292 -111.98742676 80.21678162 C-110.98969238 79.39951599 -109.99195801 78.58225037 -108.96398926 77.74021912 C-106.36242676 75.84178162 -106.36242676 75.84178162 -104.36242676 75.84178162 C-104.36242676 75.18178162 -104.36242676 74.52178162 -104.36242676 73.84178162 C-102.36958538 72.49777231 -100.36823005 71.1663687 -98.36242676 69.84178162 C-97.49617676 68.95490662 -96.62992676 68.06803162 -95.73742676 67.15428162 C-93.3009594 64.78193182 -92.47196467 64.59235973 -89.36242676 63.84178162 C-89.12781738 63.29006287 -88.89320801 62.73834412 -88.65148926 62.16990662 C-86.7657298 58.76411074 -83.88071507 56.60274774 -80.92492676 54.15428162 C-80.29965088 53.62753845 -79.674375 53.10079529 -79.03015137 52.55809021 C-74.3167565 48.59895853 -69.55920942 44.69243873 -64.77258301 40.82225037 C-62.58474133 39.0244615 -60.47139729 37.16810909 -58.36242676 35.27928162 C-55.36242676 32.84178162 -55.36242676 32.84178162 -52.36242676 32.84178162 C-52.1652002 32.2990863 -51.96797363 31.75639099 -51.76477051 31.19725037 C-49.76376805 27.83623509 -46.90069031 25.61936219 -43.92492676 23.15428162 C-43.29892578 22.62681335 -42.6729248 22.09934509 -42.0279541 21.55589294 C-37.41236184 17.67825533 -32.7524438 13.85367637 -28.05773926 10.07225037 C-25.44608616 8.05778705 -25.44608616 8.05778705 -23.95961046 6.12230629 C-17.38645327 -1.18162237 -9.0553314 -0.11465917 0 0 Z " fill="#FFFFFF" transform="translate(408.3624267578125,335.15821838378906)"/>
<path d="M0 0 C54.73654436 -0.20597242 109.47304957 -0.36457302 164.2099052 -0.45958797 C170.67118743 -0.47084441 177.1324689 -0.4824933 183.59375 -0.49438477 C184.88008186 -0.49674556 186.16641372 -0.49910635 187.49172534 -0.50153869 C208.32346984 -0.54070704 229.15499094 -0.61167177 249.98660289 -0.69437516 C271.35969178 -0.77852096 292.73266363 -0.82852523 314.10591137 -0.84679645 C327.29587294 -0.85914936 340.48520312 -0.89817244 353.67497034 -0.9712482 C362.71810589 -1.01879989 371.76091473 -1.03320594 380.80416624 -1.0215124 C386.02292495 -1.01574416 391.24057994 -1.02462232 396.45914268 -1.07284927 C401.23927767 -1.11670177 406.01756871 -1.11882776 410.79778923 -1.08809005 C412.52477622 -1.08429233 414.25187903 -1.09566863 415.97863863 -1.12394864 C424.21787839 -1.25101496 430.49811421 -1.31695579 436.97281075 4.50514317 C438.33246382 5.98778656 439.67933212 7.48252701 441 9 C441.66 9.33 442.32 9.66 443 10 C443 10.66 443 11.32 443 12 C443.59312988 12.27473145 444.18625977 12.54946289 444.79736328 12.83251953 C446.90414198 13.94919164 448.46376668 15.10557045 450.2421875 16.6796875 C450.83386719 17.19660156 451.42554688 17.71351563 452.03515625 18.24609375 C452.64230469 18.78363281 453.24945312 19.32117188 453.875 19.875 C458.92498755 24.34418987 458.92498755 24.34418987 464.4453125 28.1953125 C465.28835938 28.79085938 466.13140625 29.38640625 467 30 C467 30.99 467 31.98 467 33 C467.59458008 33.1131958 468.18916016 33.2263916 468.80175781 33.34301758 C471.18364806 34.05488638 472.33164495 34.86939697 474.171875 36.51171875 C475.03981689 37.27379639 475.03981689 37.27379639 475.92529297 38.05126953 C476.52744629 38.59122559 477.12959961 39.13118164 477.75 39.6875 C481.69278277 43.16014621 485.6033844 46.55525474 489.875 49.625 C490.90625 50.40875 491.9375 51.1925 493 52 C493 52.66 493 53.32 493 54 C493.598125 54.268125 494.19625 54.53625 494.8125 54.8125 C496.99721913 55.99849039 498.29470795 57.22056482 500 59 C502.77260299 60.93798263 502.77260299 60.93798263 505 62 C505 62.66 505 63.32 505 64 C505.57234375 64.268125 506.1446875 64.53625 506.734375 64.8125 C509.07884634 66.04132636 511.12404938 67.42522176 513.25 69 C514.30960938 69.7734375 514.30960938 69.7734375 515.390625 70.5625 C515.92171875 71.036875 516.4528125 71.51125 517 72 C517 72.66 517 73.32 517 74 C517.57234375 74.268125 518.1446875 74.53625 518.734375 74.8125 C521.07884634 76.04132636 523.12404938 77.42522176 525.25 79 C526.30960938 79.7734375 526.30960938 79.7734375 527.390625 80.5625 C527.92171875 81.036875 528.4528125 81.51125 529 82 C529 82.66 529 83.32 529 84 C529.99 84.33 530.98 84.66 532 85 C532 85.66 532 86.32 532 87 C532.72832031 87.24621094 533.45664062 87.49242187 534.20703125 87.74609375 C537.28896422 89.12973079 539.22773713 90.76143151 541.6875 93.0625 C544.61431801 95.86293113 544.61431801 95.86293113 548 98 C548 98.66 548 99.32 548 100 C548.54140625 100.23589844 549.0828125 100.47179687 549.640625 100.71484375 C552.64418186 102.35088714 555.1117092 104.38835295 557.75 106.5625 C559.22726562 107.77099609 559.22726562 107.77099609 560.734375 109.00390625 C561.48203125 109.66261719 562.2296875 110.32132813 563 111 C563 111.33 563 111.66 563 112 C508.33161368 112.27474742 453.66329721 112.48615685 398.99435612 112.61278395 C392.53822847 112.62779219 386.08210218 112.64332408 379.62597656 112.65917969 C378.34069394 112.66232741 377.05541132 112.66547514 375.73118074 112.66871825 C354.92791167 112.72091495 334.12504108 112.81551899 313.3220083 112.92583355 C291.97151126 113.03810581 270.62122272 113.10471667 249.27044261 113.12906194 C236.09870254 113.14551657 222.92808881 113.19745881 209.75669552 113.2949976 C200.72095202 113.35849642 191.68578962 113.37758639 182.64983927 113.36201653 C177.43834696 113.35434002 172.22882064 113.36598972 167.01767921 113.4304657 C162.23934849 113.48915291 157.46429242 113.49163872 152.68580635 113.45078674 C150.96410255 113.44574353 149.2421889 113.46073524 147.5208941 113.49859819 C136.85199672 113.71949458 130.50021389 112.19487741 122.64570954 104.69517224 C121.60938969 103.65824169 120.58096386 102.61335639 119.56093498 101.56039634 C116.964882 98.96523918 114.13658882 96.65302759 111.3125 94.3125 C110.23370188 93.40183847 109.15548937 92.49048229 108.078125 91.578125 C105.26240276 89.2112352 102.41685658 86.88270798 99.5625 84.5625 C94.69870975 80.60491812 89.94118769 76.53457554 85.19165039 72.44165039 C81.66701081 69.41054711 78.10960118 66.43014684 74.5 63.5 C70.2720752 60.06791987 66.1247211 56.55448829 62 53 C56.98408311 48.67827137 51.90824701 44.44520804 46.76953125 40.26953125 C43.69579025 37.75071105 40.6562636 35.19463155 37.625 32.625 C37.08456055 32.16706055 36.54412109 31.70912109 35.98730469 31.23730469 C33.17572433 28.8523779 30.36920721 26.46164285 27.56640625 24.06640625 C26.44050201 23.10630409 25.31420628 22.14666082 24.1875 21.1875 C23.64722168 20.72754639 23.10694336 20.26759277 22.55029297 19.79370117 C18.93948675 16.74058491 15.24938056 13.85302784 11.390625 11.12109375 C10 10 10 10 9 8 C7.69417053 6.96434215 6.35622245 5.96873032 5 5 C1.11111111 2.22222222 1.11111111 2.22222222 0 0 Z " fill="#FFFFFF" transform="translate(261,483)"/>
<path d="" fill="#FFFFFF" transform="translate(0,0)"/>
<path d="" fill="#FFFFFF" transform="translate(0,0)"/>
<path d="" fill="#FFFFFF" transform="translate(0,0)"/>
<path d="" fill="#FFFFFF" transform="translate(0,0)"/>
<path d="" fill="#FFFFFF" transform="translate(0,0)"/>
<path d="" fill="#FFFFFF" transform="translate(0,0)"/>
</svg>
